<svg width="24" height="24" viewBox="0 0 24 24" fill="none" xmlns="http://www.w3.org/2000/svg">
<path d="M17.7549 13.9999C18.5349 13.9999 19.2209 14.3969 19.6249 14.9999H13.4999C12.9369 14.9999 12.4179 15.1859 11.9999 15.4999H6.25291C6.15438 15.4998 6.05679 15.5191 5.96574 15.5567C5.87468 15.5943 5.79195 15.6496 5.72228 15.7193C5.65261 15.7889 5.59737 15.8717 5.55973 15.9627C5.52208 16.0538 5.50277 16.1514 5.50291 16.2499V16.8269C5.50291 17.3619 5.69491 17.8799 6.04291 18.2869C7.13791 19.5699 8.77691 20.3029 10.9999 20.4669V21.4999C10.9999 21.6609 11.0149 21.8199 11.0449 21.9719C8.36791 21.8029 6.30491 20.9059 4.90191 19.2619C4.32229 18.583 4.00388 17.7196 4.00391 16.8269V16.2489C4.00391 15.6524 4.24085 15.0804 4.66262 14.6586C5.08439 14.2368 5.65643 13.9999 6.25291 13.9999H17.7549ZM11.9999 2.00488C12.6565 2.00488 13.3067 2.13421 13.9133 2.38548C14.52 2.63676 15.0711 3.00506 15.5354 3.46935C15.9997 3.93364 16.368 4.48484 16.6193 5.09147C16.8706 5.69809 16.9999 6.34827 16.9999 7.00488C16.9999 7.66149 16.8706 8.31167 16.6193 8.9183C16.368 9.52493 15.9997 10.0761 15.5354 10.5404C15.0711 11.0047 14.52 11.373 13.9133 11.6243C13.3067 11.8756 12.6565 12.0049 11.9999 12.0049C10.6738 12.0049 9.40205 11.4781 8.46437 10.5404C7.52669 9.60273 6.99991 8.33097 6.99991 7.00488C6.99991 5.6788 7.52669 4.40703 8.46437 3.46935C9.40205 2.53167 10.6738 2.00488 11.9999 2.00488ZM11.9999 3.50488C11.5403 3.50488 11.0852 3.59541 10.6605 3.7713C10.2359 3.9472 9.85004 4.205 9.52503 4.53001C9.20003 4.85501 8.94222 5.24085 8.76633 5.66549C8.59044 6.09013 8.49991 6.54526 8.49991 7.00488C8.49991 7.46451 8.59044 7.91963 8.76633 8.34427C8.94222 8.76891 9.20003 9.15475 9.52503 9.47976C9.85004 9.80476 10.2359 10.0626 10.6605 10.2385C11.0852 10.4144 11.5403 10.5049 11.9999 10.5049C12.9282 10.5049 13.8184 10.1361 14.4748 9.47976C15.1312 8.82338 15.4999 7.93314 15.4999 7.00488C15.4999 6.07662 15.1312 5.18639 14.4748 4.53001C13.8184 3.87363 12.9282 3.50488 11.9999 3.50488ZM11.9999 17.4999C11.9999 17.1021 12.1579 16.7205 12.4392 16.4392C12.7206 16.1579 13.1021 15.9999 13.4999 15.9999H21.4999C21.8977 15.9999 22.2793 16.1579 22.5606 16.4392C22.8419 16.7205 22.9999 17.1021 22.9999 17.4999V21.4999C22.9999 21.8977 22.8419 22.2792 22.5606 22.5605C22.2793 22.8418 21.8977 22.9999 21.4999 22.9999H13.4999C13.1021 22.9999 12.7206 22.8418 12.4392 22.5605C12.1579 22.2792 11.9999 21.8977 11.9999 21.4999V17.4999ZM21.9999 17.9999C21.7347 17.9999 21.4803 17.8945 21.2928 17.707C21.1053 17.5195 20.9999 17.2651 20.9999 16.9999H19.9999C19.9999 17.5303 20.2106 18.039 20.5857 18.4141C20.9608 18.7892 21.4695 18.9999 21.9999 18.9999V17.9999ZM21.9999 19.9999C21.4695 19.9999 20.9608 20.2106 20.5857 20.5857C20.2106 20.9607 19.9999 21.4694 19.9999 21.9999H20.9999C20.9999 21.7347 21.1053 21.4803 21.2928 21.2928C21.4803 21.1052 21.7347 20.9999 21.9999 20.9999V19.9999ZM13.9999 16.9999C13.9999 17.2651 13.8945 17.5195 13.707 17.707C13.5195 17.8945 13.2651 17.9999 12.9999 17.9999V18.9999C13.5303 18.9999 14.039 18.7892 14.4141 18.4141C14.7892 18.039 14.9999 17.5303 14.9999 16.9999H13.9999ZM14.9999 21.9999C14.9999 21.4694 14.7892 20.9607 14.4141 20.5857C14.039 20.2106 13.5303 19.9999 12.9999 19.9999V20.9999C13.2651 20.9999 13.5195 21.1052 13.707 21.2928C13.8945 21.4803 13.9999 21.7347 13.9999 21.9999H14.9999ZM19.2499 19.4999C19.2499 19.0358 19.0655 18.5906 18.7373 18.2624C18.4092 17.9343 17.964 17.7499 17.4999 17.7499C17.0358 17.7499 16.5907 17.9343 16.2625 18.2624C15.9343 18.5906 15.7499 19.0358 15.7499 19.4999C15.7499 19.964 15.9343 20.4091 16.2625 20.7373C16.5907 21.0655 17.0358 21.2499 17.4999 21.2499C17.964 21.2499 18.4092 21.0655 18.7373 20.7373C19.0655 20.4091 19.2499 19.964 19.2499 19.4999Z" fill="#7E7E7E"/>
</svg>
