<svg width="24" height="24" viewBox="0 0 24 24" fill="none" xmlns="http://www.w3.org/2000/svg">
<path d="M6.70005 14.7C6.51672 14.5167 6.42505 14.2834 6.42505 14C6.42505 13.7167 6.51672 13.4834 6.70005 13.3L11.3 8.70005C11.4 8.60005 11.5084 8.52938 11.625 8.48805C11.7417 8.44672 11.8667 8.42572 12 8.42505C12.1334 8.42505 12.2627 8.45005 12.388 8.50005C12.5134 8.55005 12.6174 8.61672 12.7 8.70005L17.3 13.3C17.4834 13.4834 17.575 13.7167 17.575 14C17.575 14.2834 17.4834 14.5167 17.3 14.7C17.1167 14.8834 16.8834 14.975 16.6 14.975C16.3167 14.975 16.0834 14.8834 15.9 14.7L12 10.8L8.10005 14.7C7.91672 14.8834 7.68338 14.975 7.40005 14.975C7.11672 14.975 6.88338 14.8834 6.70005 14.7Z" fill="#26B195"/>
</svg>
