<svg width="16" height="16" viewBox="0 0 16 16" fill="none" xmlns="http://www.w3.org/2000/svg">
<path d="M8 12C7.71667 12 7.479 11.904 7.287 11.712C7.095 11.52 6.99934 11.2827 7 11V3.85005L5.125 5.72505C4.925 5.92505 4.69167 6.02505 4.425 6.02505C4.15834 6.02505 3.91667 5.91672 3.7 5.70005C3.5 5.50005 3.40434 5.26272 3.413 4.98805C3.42167 4.71338 3.51733 4.48405 3.7 4.30005L7.3 0.700048C7.4 0.600048 7.50834 0.529382 7.625 0.488049C7.74167 0.446715 7.86667 0.425715 8 0.425049C8.13334 0.425049 8.25834 0.446049 8.375 0.488049C8.49167 0.530049 8.6 0.600715 8.7 0.700048L12.3 4.30005C12.5 4.50005 12.596 4.73771 12.588 5.01305C12.58 5.28838 12.484 5.51738 12.3 5.70005C12.1 5.90005 11.8623 6.00438 11.587 6.01305C11.3117 6.02171 11.0743 5.92572 10.875 5.72505L9 3.85005V11C9 11.2834 8.904 11.521 8.712 11.713C8.52 11.905 8.28267 12.0007 8 12ZM2 16C1.45 16 0.979002 15.804 0.587002 15.412C0.195002 15.02 -0.000664969 14.5494 1.69779e-06 14V12C1.69779e-06 11.7167 0.0960018 11.479 0.288002 11.287C0.480002 11.095 0.717335 10.9994 1 11C1.28333 11 1.521 11.096 1.713 11.288C1.905 11.48 2.00067 11.7174 2 12V14H14V12C14 11.7167 14.096 11.479 14.288 11.287C14.48 11.095 14.7173 10.9994 15 11C15.2833 11 15.521 11.096 15.713 11.288C15.905 11.48 16.0007 11.7174 16 12V14C16 14.55 15.804 15.021 15.412 15.413C15.02 15.805 14.5493 16.0007 14 16H2Z" fill="#26B195"/>
</svg>
