<svg width="24" height="24" viewBox="0 0 24 24" fill="none" xmlns="http://www.w3.org/2000/svg">
<path d="M19.6871 14.093L19.8711 12.388C19.9681 11.478 20.0331 10.878 19.9821 10.5H20.0001C20.3424 10.4999 20.6744 10.3827 20.9409 10.168C21.2074 9.95319 21.3925 9.65372 21.4653 9.31928C21.5382 8.98483 21.4945 8.63553 21.3414 8.32935C21.1884 8.02317 20.9353 7.77855 20.624 7.63608C20.3128 7.49361 19.9622 7.46188 19.6304 7.54614C19.2987 7.63041 19.0057 7.8256 18.8002 8.09933C18.5947 8.37305 18.4889 8.70883 18.5006 9.05092C18.5122 9.39301 18.6405 9.72084 18.8641 9.97998C18.5381 10.181 18.1121 10.606 17.4711 11.245C16.9761 11.738 16.7291 11.984 16.4531 12.022C16.3002 12.0431 16.1444 12.0213 16.0031 11.959C15.7491 11.847 15.5791 11.543 15.2401 10.934L13.4501 7.72498C13.2411 7.34998 13.0661 7.03498 12.9081 6.78298C13.3084 6.57903 13.6283 6.24625 13.8164 5.83828C14.0045 5.43031 14.0497 4.9709 13.9448 4.53408C13.84 4.09725 13.5911 3.70846 13.2383 3.43034C12.8855 3.15222 12.4493 3.00098 12.0001 3.00098C11.5509 3.00098 11.1147 3.15222 10.7619 3.43034C10.4091 3.70846 10.1602 4.09725 10.0554 4.53408C9.95048 4.9709 9.99573 5.43031 10.1838 5.83828C10.3719 6.24625 10.6918 6.57903 11.0921 6.78298C10.9341 7.03598 10.7591 7.34998 10.5491 7.72498L8.7601 10.934C8.4201 11.543 8.2501 11.847 7.9961 11.959C7.85483 12.0213 7.69904 12.0431 7.5461 12.022C7.2711 11.984 7.0241 11.738 6.5291 11.245C5.8881 10.606 5.4621 10.181 5.1361 9.97998C5.35973 9.72084 5.488 9.39301 5.49963 9.05092C5.51125 8.70883 5.40552 8.37305 5.2 8.09933C4.99447 7.8256 4.70152 7.63041 4.36976 7.54614C4.038 7.46188 3.6874 7.49361 3.37617 7.63608C3.06494 7.77855 2.81179 8.02317 2.65875 8.32935C2.50572 8.63553 2.46201 8.98483 2.53487 9.31928C2.60773 9.65372 2.79279 9.95319 3.05931 10.168C3.32584 10.3827 3.6578 10.4999 4.0001 10.5H4.0181C3.9671 10.878 4.0321 11.479 4.1291 12.388L4.3131 14.093C4.4151 15.039 4.4991 15.94 4.6031 16.75H19.3971C19.5011 15.94 19.5851 15.04 19.6871 14.093ZM10.9121 21H13.0881C15.9241 21 17.3421 21 18.2881 20.153C18.7011 19.783 18.9621 19.117 19.1511 18.25H4.8491C5.0381 19.117 5.2991 19.784 5.7121 20.153C6.6581 21 8.0761 21 10.9121 21Z" fill="#F7B418"/>
</svg>
