<svg width="53" height="34" viewBox="0 0 53 34" fill="none" xmlns="http://www.w3.org/2000/svg">
<path d="M5.10405 20.7332C5.15307 21.2752 5.03564 21.8192 4.76743 22.2926C4.59183 22.4837 4.37313 22.6301 4.12953 22.7195C3.88593 22.809 3.62449 22.839 3.36697 22.8069L0 22.8242V26.8292H5.44067C5.91644 26.8472 6.39087 26.7677 6.83477 26.5956C7.27868 26.4235 7.68268 26.1623 8.02194 25.8283C8.36936 25.4515 8.63694 25.0084 8.80856 24.5254C8.98019 24.0425 9.0523 23.5299 9.02056 23.0184V7.42432H5.10405V20.7332Z" fill="#1C2E5A"/>
<path d="M18.4086 26.8643V28.072H16.4279V33.3868H15.0071V28.072H13.0354V26.8643H18.4086Z" fill="#26B195"/>
<path d="M24.7067 26.8643V33.3868H23.2823V30.5484H20.6193V33.3868H19.1948V26.8643H20.6193V29.3383H23.286V26.8643H24.7067Z" fill="#26B195"/>
<path d="M30.8621 26.8643V28.072H27.3947V29.4605H30.575V30.5806H27.3947V32.1775H30.9273V33.3868H25.9702V26.8643H30.8621Z" fill="#26B195"/>
<path d="M38.9882 26.8643V33.3868H37.6387V31.4323C37.6387 30.3827 37.668 29.2811 37.7265 28.1275C37.513 28.9697 37.2891 29.7302 37.0547 30.4089L36.0366 33.3868H34.9165L33.8707 30.4696C33.6055 29.7119 33.3845 28.9394 33.2087 28.156C33.2632 29.433 33.2904 30.4741 33.2904 31.2793V33.3868H31.9409V26.8643H33.9651L34.9398 29.6967C35.165 30.3721 35.3458 31.0616 35.4811 31.7606C35.6254 31.0572 35.8124 30.3631 36.0411 29.6824L36.976 26.8643H38.9882Z" fill="#26B195"/>
<path d="M41.0897 33.3863H39.6233L42.1086 26.8511H43.581L46.0551 33.3848H44.5609L44.0466 31.9236H41.6175L41.0927 33.3856L41.0897 33.3863ZM42.8396 28.2905C42.7331 28.6706 42.5832 29.134 42.3815 29.7075L41.9609 30.8823H43.6957L43.2751 29.7075C43.1049 29.2432 42.9595 28.7703 42.8396 28.2905Z" fill="#26B195"/>
<path d="M48.1007 33.3865H46.6763V26.864H49.8326C50.3288 26.8373 50.8235 26.9407 51.2675 27.1639C51.5389 27.3171 51.7622 27.5429 51.9125 27.816C52.0628 28.089 52.1341 28.3985 52.1184 28.7098C52.1353 29.1594 51.9736 29.5973 51.6686 29.9281C51.5066 30.0985 51.3068 30.2284 51.0853 30.3074C51.3644 30.3738 51.6065 30.5465 51.7601 30.7887C51.8989 31.0221 51.9856 31.2827 52.0142 31.5527C52.0292 31.6442 52.0607 31.9508 52.1072 32.4643C52.1044 32.7578 52.1702 33.0479 52.2991 33.3115L52.3584 33.3865H50.8747C50.83 33.2938 50.7973 33.1958 50.7772 33.0949C50.7555 32.9966 50.7232 32.645 50.6797 32.0453C50.6894 31.8456 50.6531 31.6465 50.5737 31.4631C50.4942 31.2797 50.3738 31.117 50.2217 30.9874C49.9608 30.8582 49.6702 30.8007 49.3797 30.821H48.1007V33.3865ZM48.1007 27.9885V29.7796H49.4502C49.7701 29.8058 50.0909 29.7417 50.3761 29.5944C50.4886 29.5133 50.5787 29.4049 50.6379 29.2794C50.697 29.1539 50.7233 29.0154 50.7142 28.877C50.7285 28.7151 50.692 28.5528 50.61 28.4126C50.5279 28.2724 50.4042 28.1611 50.2562 28.0943C50.019 28.0088 49.7672 27.9711 49.5154 27.9833L48.1007 27.9885Z" fill="#26B195"/>
<path d="M44.8907 10.8534C44.5355 10.6914 44.2069 10.4765 43.9161 10.2161C43.3553 9.7903 42.7997 9.33598 42.2667 8.86666C42.1377 8.77444 42.0725 8.69947 42.0725 8.63424L42.1887 8.46031L44.5631 5.58441L44.7168 5.4877C45.6302 6.0626 46.5066 6.69436 47.3407 7.37922L49.5419 4.71549L49.6971 4.61878C50.6188 5.16675 51.4962 5.78616 52.3211 6.47132L52.4943 6.62501L52.5693 6.76071L52.456 6.97513L50.1214 9.79255C50.0337 9.9185 49.9603 9.98523 49.9093 9.98523C49.5249 9.8073 49.1673 9.5764 48.8469 9.29924C48.2389 8.84941 47.7134 8.42507 47.2845 8.03522L45.1036 10.6592C45.0136 10.7882 44.9424 10.8534 44.8907 10.8534ZM47.226 5.79583C46.8511 5.62156 46.5032 5.39433 46.1929 5.12109C45.5977 4.67126 45.0819 4.25142 44.659 3.86681C44.5308 3.77685 44.4656 3.69888 44.4656 3.63515L46.8594 0.624301L47.0139 0.527588C47.8989 1.06391 48.7438 1.66375 49.5419 2.3224L49.7196 2.47684L49.7946 2.61179L49.6799 2.82471L47.4382 5.6039C47.349 5.73135 47.2778 5.79583 47.226 5.79583Z" fill="#1C2E5A"/>
<path d="M45.4381 23.3529H35.7795V23.3357H16.0733C15.0086 23.4155 13.9548 23.0769 13.1359 22.3918C12.7883 22.0116 12.5221 21.5644 12.3537 21.0775C12.1853 20.5907 12.1183 20.0746 12.1568 19.5609V3.20361H16.0553V17.8065C16.0251 18.0681 16.0575 18.333 16.1499 18.5796C16.2424 18.8261 16.3921 19.0471 16.5868 19.2242C17.0261 19.4609 17.5245 19.5651 18.0218 19.5241H22.3402V11.8823H34.5882V19.5084L36.8254 19.5249H44.1973V19.5069L46.1826 19.5249H46.4547C46.9476 19.5572 47.4424 19.5089 47.9196 19.3817C48.3897 19.1703 48.6281 18.632 48.6281 17.7863V11.958H52.5094V19.4896C52.548 20.0126 52.4799 20.5379 52.3093 21.0337C52.1386 21.5295 51.869 21.9854 51.5168 22.3738C50.693 23.0706 49.6283 23.4158 48.5524 23.3349H45.4336V23.3514L45.4381 23.3529ZM26.3106 15.7493V19.4911H26.546V19.5069H29.4879C29.5697 19.507 29.6513 19.5017 29.7323 19.4911H30.7339V15.7493H29.7338C29.6523 15.7381 29.5702 15.7326 29.4879 15.7328H26.546V15.7493H26.3106Z" fill="#1C2E5A"/>
</svg>
