<svg width="24" height="24" viewBox="0 0 24 24" fill="none" xmlns="http://www.w3.org/2000/svg">
<path d="M8.03857 21.1898C7.74377 22.1339 7.16309 22.172 6.57043 21.7181C5.0572 20.5593 3.56614 19.3672 2.13684 18.1082C1.93584 17.9312 1.96435 17.1798 2.16946 16.9066C3.46067 15.1869 4.82361 13.5205 6.18204 11.8521C6.54741 11.4033 6.90902 11.2764 7.48775 11.7251C8.91253 12.83 10.4211 13.8267 11.9934 14.9357C13.0045 13.7237 14.0064 12.5246 15.0037 11.3215C15.0528 11.2623 15.0449 11.1575 15.0911 11.0939C16.1784 9.59747 16.4737 9.54804 18.0416 10.6245C19.1586 11.3914 20.274 12.1608 21.3785 12.9453C22.2056 13.5328 22.3381 14.18 21.6236 15.0079C20.4317 16.3887 19.2948 17.8174 18.1487 19.2373C17.1725 20.4466 16.7469 20.5094 15.4759 19.5191C14.269 18.5786 13.0809 17.614 11.8725 16.6505C10.6004 18.1639 9.35522 19.6454 8.03857 21.1898Z" fill="url(#paint0_linear_1_7199)"/>
<path d="M13.9181 9.70285C13.1905 10.6148 12.5298 11.4632 11.7812 12.4245C9.89629 10.9772 8.06907 9.57412 6.11475 8.0735C7.45199 6.37634 8.62628 4.78292 9.91046 3.28363C11.351 1.60181 11.3915 1.64245 13.2221 2.99839C14.1825 3.70974 15.0861 4.54165 16.1404 5.06944C17.1314 5.56559 16.8035 6.13462 16.4297 6.64902C15.674 7.68881 14.8064 8.64724 13.9181 9.70285Z" fill="url(#paint1_linear_1_7199)"/>
<defs>
<linearGradient id="paint0_linear_1_7199" x1="10.5" y1="10.7932" x2="11.0691" y2="22.0494" gradientUnits="userSpaceOnUse">
<stop stop-color="#746EAD"/>
<stop offset="1" stop-color="white" stop-opacity="0.28"/>
</linearGradient>
<linearGradient id="paint1_linear_1_7199" x1="10.6349" y1="2.78183" x2="11.4238" y2="12.4271" gradientUnits="userSpaceOnUse">
<stop stop-color="#746EAD"/>
<stop offset="1" stop-color="white" stop-opacity="0.28"/>
</linearGradient>
</defs>
</svg>
